<svg width="312" height="110" viewBox="0 0 312 110" fill="none" xmlns="http://www.w3.org/2000/svg">
<path d="M6.41439 106.706C3.90154 105.373 2.20426 104.078 1.32255 102.824C0.440852 101.647 0 100 0 97.8823C0 95.5294 0.308596 92.2353 0.925788 88C1.54298 83.6863 2.33651 78.902 3.30639 73.6471C4.32035 68.3922 5.46656 62.902 6.74503 57.1765C8.0235 51.451 9.32401 45.9608 10.6466 40.7059C11.9691 35.451 13.2476 30.6667 14.482 26.3529C15.7604 21.9608 16.8846 18.549 17.8545 16.1176L17.3916 11.1765C18.0088 11.1765 18.8684 11.451 19.9706 12C21.0727 12.549 22.1748 13.2157 23.277 14C24.4232 14.7843 25.4151 15.6078 26.2527 16.4706C27.1344 17.2549 27.6193 17.9216 27.7075 18.4706C27.4871 20.3529 27.3108 23.2157 27.1785 27.0588C27.0462 30.8235 26.9801 34.8627 26.9801 39.1765C26.9801 47.7255 27.1565 56.1177 27.5091 64.3529C27.9059 72.5098 28.7876 80.8235 30.1542 89.2941C30.8596 83.0196 31.6091 76.7843 32.4026 70.5882C33.2402 64.3137 34.0999 58.3529 34.9816 52.7059C35.8633 46.9804 36.745 41.6863 37.6267 36.8235C38.5084 31.9608 39.346 27.7255 40.1395 24.1176C40.9772 20.4314 41.7486 17.5686 42.454 15.5294C43.1594 13.4118 43.7986 12.2745 44.3717 12.1177C44.8566 12.2745 45.3857 12.6275 45.9588 13.1765C46.5319 13.6471 47.0829 14.2353 47.612 14.9412C48.141 15.6471 48.6259 16.4314 49.0668 17.2941C49.5076 18.1569 49.8603 19.0196 50.1248 19.8824C48.7141 20.902 47.3034 23.2941 45.8926 27.0588C44.526 30.8235 43.2034 35.4118 41.925 40.8235C40.6906 46.1569 39.5223 51.9608 38.4202 58.2353C37.3622 64.5098 36.4143 70.7059 35.5767 76.8235C34.7832 82.8627 34.144 88.4706 33.659 93.6471C33.2182 98.8235 32.9757 102.98 32.9316 106.118C32.9316 106.275 32.9537 106.392 32.9977 106.471C32.8655 106.549 32.7112 106.588 32.5348 106.588C32.4026 106.588 32.2703 106.588 32.1381 106.588C30.1102 106.588 28.3027 106.118 26.7156 105.176C25.1726 104.314 24.1587 103.059 23.6737 101.412C22.7479 94.8235 21.9764 88.4706 21.3593 82.3529C20.7421 76.2353 20.213 70.1177 19.7722 64C19.3754 57.8824 19.0448 51.7255 18.7803 45.5294C18.5598 39.2549 18.3835 32.7059 18.2513 25.8824C17.4136 28.2353 16.5319 31.3333 15.6061 35.1765C14.6804 38.9412 13.7766 43.098 12.8949 47.6471C12.0132 52.1961 11.1535 56.9804 10.3159 62C9.52239 67.0196 8.81703 71.9216 8.19984 76.7059C7.58265 81.4902 7.09771 86.0392 6.74503 90.3529C6.39235 94.5882 6.21601 98.2745 6.21601 101.412C6.21601 103.059 6.21601 104.235 6.21601 104.941C6.26009 105.647 6.32622 106.235 6.41439 106.706ZM67.2701 49.0588C67.0938 53.9216 66.6088 58.1176 65.8153 61.6471C65.0218 65.098 63.8755 68.1569 62.3766 70.8235C60.9218 73.4118 59.1364 75.7647 57.0203 77.8824C54.9042 80 52.4353 82.0392 49.6139 84C49.6139 84.4706 49.5918 84.9804 49.5477 85.5294C49.5477 86 49.5477 86.5098 49.5477 87.0588C49.5477 88.0784 49.5918 89.1373 49.68 90.2353C49.7682 91.3333 49.9225 92.3529 50.1429 93.2941C50.3633 94.2353 50.6719 95.0196 51.0687 95.6471C51.4655 96.1961 51.9724 96.4706 52.5896 96.4706C53.7799 96.4706 54.9483 96 56.0945 95.0588C57.2407 94.1176 58.3208 92.9804 59.3348 91.6471C60.3928 90.2353 61.3627 88.7451 62.2444 87.1765C63.1702 85.5294 63.9857 84.0392 64.6911 82.7059C65.132 83.4118 65.5067 84.0784 65.8153 84.7059C63.8315 89.4118 61.6492 93.3333 59.2686 96.4706C56.9321 99.5294 54.7058 101.49 52.5896 102.353C49.5477 101.725 47.1672 99.7647 45.4478 96.4706C43.7726 93.098 42.935 89.0588 42.935 84.3529C42.935 81.1373 43.1774 77.8824 43.6624 74.5882C44.1914 71.2157 44.8968 68 45.7785 64.9412C46.7043 61.8039 47.7623 58.8627 48.9526 56.1176C50.187 53.3726 51.4875 50.9804 52.8541 48.9412C54.2649 46.902 55.6977 45.2941 57.1525 44.1176C58.6514 42.9412 60.1283 42.3529 61.5831 42.3529C63.611 42.8235 65.5067 45.0588 67.2701 49.0588ZM62.7073 52.9412C61.517 53.2549 60.2826 54.1177 59.0041 55.5294C57.7257 56.9412 56.5133 58.8235 55.3671 61.1765C54.2649 63.5294 53.2509 66.2745 52.3251 69.4118C51.3993 72.549 50.6719 75.9216 50.1429 79.5294C53.6697 76.3922 56.6015 72.549 58.938 68C61.2745 63.3726 62.5309 58.3529 62.7073 52.9412ZM73.7809 52.7059C73.5605 52.2353 73.3621 51.2549 73.1858 49.7647C73.0094 48.1961 72.9212 46.8628 72.9212 45.7647C74.0675 45.9216 75.1696 46.0784 76.2276 46.2353C77.2857 46.3137 78.2556 46.3922 79.1373 46.4706C79.7985 44.1177 80.5039 41.8039 81.2533 39.5294C82.0469 37.1765 82.7963 35.0588 83.5017 33.1765C84.2511 31.2157 84.9345 29.5686 85.5517 28.2353C86.2129 26.902 86.7199 26.0392 87.0726 25.6471C87.5134 25.6471 88.0645 25.8039 88.7258 26.1176C89.4312 26.3529 90.1365 26.7059 90.8419 27.1765C91.5472 27.5686 92.1865 28 92.7596 28.4706C93.3327 28.9412 93.7295 29.4118 93.9499 29.8824C92.6273 32.8627 91.4811 35.6471 90.5112 38.2353C89.5854 40.7451 88.5715 43.6471 87.4694 46.9412C88.3511 46.9412 89.2328 46.902 90.1145 46.8235C91.0403 46.7451 91.966 46.6275 92.8918 46.4706C93.1123 46.8628 93.2886 47.3726 93.4209 48C93.5531 48.549 93.6192 49.1373 93.6192 49.7647C91.4591 51.1765 88.836 51.9608 85.75 52.1176C84.6479 55.8824 83.656 59.6471 82.7743 63.4118C81.9367 67.098 81.2093 70.6667 80.5921 74.1176C80.019 77.5686 79.5561 80.8235 79.2034 83.8823C78.8948 86.9412 78.7405 89.6863 78.7405 92.1176C78.7405 95.5686 79.4679 97.4902 80.9227 97.8823C82.2453 97.5686 83.5017 96.9804 84.692 96.1176C85.8823 95.2549 86.9403 94.1569 87.8661 92.8235C88.1306 93.5294 88.2849 94.1176 88.329 94.5882C88.0645 95.2941 87.6016 96.1176 86.9403 97.0588C86.3231 98 85.6398 98.902 84.8904 99.7647C84.1409 100.706 83.4135 101.49 82.7082 102.118C82.0028 102.745 81.4738 103.098 81.1211 103.176C80.019 103.098 78.9168 102.667 77.8147 101.882C76.7126 101.098 75.6986 100.118 74.7728 98.9412C73.8911 97.7647 73.1637 96.4706 72.5906 95.0588C72.0175 93.5686 71.731 92.1176 71.731 90.7059C71.731 88.8235 71.8632 86.4706 72.1277 83.6471C72.4363 80.7451 72.8551 77.6078 73.3841 74.2353C73.9132 70.8627 74.5304 67.3333 75.2357 63.6471C75.9411 59.9608 76.7126 56.3137 77.5502 52.7059H73.7809ZM97.0292 52.7059C96.8088 52.2353 96.6104 51.2549 96.4341 49.7647C96.2577 48.1961 96.1696 46.8628 96.1696 45.7647C97.3158 45.9216 98.4179 46.0784 99.476 46.2353C100.534 46.3137 101.504 46.3922 102.386 46.4706C103.047 44.1177 103.752 41.8039 104.502 39.5294C105.295 37.1765 106.045 35.0588 106.75 33.1765C107.499 31.2157 108.183 29.5686 108.8 28.2353C109.461 26.902 109.968 26.0392 110.321 25.6471C110.762 25.6471 111.313 25.8039 111.974 26.1176C112.679 26.3529 113.385 26.7059 114.09 27.1765C114.796 27.5686 115.435 28 116.008 28.4706C116.581 28.9412 116.978 29.4118 117.198 29.8824C115.876 32.8627 114.729 35.6471 113.76 38.2353C112.834 40.7451 111.82 43.6471 110.718 46.9412C111.599 46.9412 112.481 46.902 113.363 46.8235C114.289 46.7451 115.214 46.6275 116.14 46.4706C116.361 46.8628 116.537 47.3726 116.669 48C116.801 48.549 116.868 49.1373 116.868 49.7647C114.707 51.1765 112.084 51.9608 108.998 52.1176C107.896 55.8824 106.904 59.6471 106.023 63.4118C105.185 67.098 104.458 70.6667 103.84 74.1176C103.267 77.5686 102.804 80.8235 102.452 83.8823C102.143 86.9412 101.989 89.6863 101.989 92.1176C101.989 95.5686 102.716 97.4902 104.171 97.8823C105.494 97.5686 106.75 96.9804 107.94 96.1176C109.131 95.2549 110.189 94.1569 111.114 92.8235C111.379 93.5294 111.533 94.1176 111.577 94.5882C111.313 95.2941 110.85 96.1176 110.189 97.0588C109.571 98 108.888 98.902 108.139 99.7647C107.389 100.706 106.662 101.49 105.956 102.118C105.251 102.745 104.722 103.098 104.369 103.176C103.267 103.098 102.165 102.667 101.063 101.882C99.9609 101.098 98.9469 100.118 98.0211 98.9412C97.1394 97.7647 96.412 96.4706 95.8389 95.0588C95.2658 93.5686 94.9793 92.1176 94.9793 90.7059C94.9793 88.8235 95.1115 86.4706 95.376 83.6471C95.6846 80.7451 96.1034 77.6078 96.6325 74.2353C97.1615 70.8627 97.7787 67.3333 98.484 63.6471C99.1894 59.9608 99.9609 56.3137 100.799 52.7059H97.0292ZM158.722 18.4706C158.854 19.8039 158.942 20.7451 158.987 21.2941C159.075 21.7647 159.119 22.4314 159.119 23.2941C159.119 25.8824 158.788 28.3137 158.127 30.5882C157.51 32.7843 156.65 34.3529 155.548 35.2941C154.666 33.1765 153.586 31.3726 152.308 29.8824C151.029 28.3137 149.618 27.0588 148.075 26.1176C146.577 25.098 145.012 24.3529 143.38 23.8824C141.749 23.4118 140.162 23.1765 138.619 23.1765C137.076 23.1765 135.621 23.4118 134.255 23.8824C132.932 24.2745 131.742 24.8627 130.684 25.6471C129.67 26.3529 128.854 27.2549 128.237 28.3529C127.664 29.451 127.377 30.7059 127.377 32.1176C127.51 33.8431 128.105 35.6078 129.163 37.4118C130.221 39.1373 131.521 40.8628 133.064 42.5882C134.607 44.2353 136.305 45.8824 138.156 47.5294C140.052 49.1765 141.904 50.7451 143.711 52.2353C145.959 54.1177 147.899 55.8824 149.53 57.5294C151.161 59.098 152.506 60.8627 153.564 62.8235C154.622 64.7059 155.416 66.8628 155.945 69.2941C156.474 71.7255 156.738 74.6667 156.738 78.1176C156.738 82.1176 156.363 85.8823 155.614 89.4118C154.865 92.8627 153.762 95.8823 152.308 98.4706C150.897 101.059 149.178 103.059 147.15 104.471C145.122 105.961 142.851 106.706 140.338 106.706C137.87 106.706 135.203 106.039 132.337 104.706C129.471 103.373 126.782 101.529 124.269 99.1765C121.801 96.902 119.729 94.2745 118.053 91.2941C116.422 88.2353 115.607 85.0196 115.607 81.6471C115.607 80.0784 115.849 78.0784 116.334 75.6471C116.863 73.2157 117.789 70.6667 119.111 68C119.244 70.3529 119.949 73.1373 121.228 76.3529C122.55 79.5686 124.512 82.549 127.113 85.2941C129.538 87.8039 132.028 89.6471 134.585 90.8235C137.186 91.9216 139.611 92.4706 141.859 92.4706C144.328 92.4706 146.334 91.9216 147.877 90.8235C149.42 89.7255 150.632 88.4314 151.514 86.9412C152.396 85.3725 153.013 83.8039 153.366 82.2353C153.718 80.6667 153.917 79.4118 153.961 78.4706C153.917 76.902 153.498 75.4118 152.704 74C151.955 72.5098 150.919 71.098 149.596 69.7647C148.318 68.3529 146.819 66.9412 145.1 65.5294C143.38 64.1177 141.595 62.7059 139.743 61.2941C136.966 59.098 134.563 57.0588 132.535 55.1765C130.552 53.2157 128.898 51.2549 127.576 49.2941C126.297 47.2549 125.35 45.1373 124.732 42.9412C124.159 40.7451 123.873 38.2353 123.873 35.4118C123.873 31.0196 124.622 26.8627 126.121 22.9412C127.62 19.0196 129.78 16.0392 132.602 14C134.012 12.902 135.511 12.1177 137.098 11.6471C138.729 11.1765 140.316 10.9412 141.859 10.9412C144.769 10.9412 147.613 11.6471 150.39 13.0588C153.167 14.4706 155.945 16.2745 158.722 18.4706ZM163.996 52.7059C163.776 52.2353 163.577 51.2549 163.401 49.7647C163.225 48.1961 163.137 46.8628 163.137 45.7647C164.283 45.9216 165.385 46.0784 166.443 46.2353C167.501 46.3137 168.471 46.3922 169.353 46.4706C170.014 44.1177 170.719 41.8039 171.469 39.5294C172.262 37.1765 173.012 35.0588 173.717 33.1765C174.466 31.2157 175.15 29.5686 175.767 28.2353C176.428 26.902 176.935 26.0392 177.288 25.6471C177.729 25.6471 178.28 25.8039 178.941 26.1176C179.646 26.3529 180.352 26.7059 181.057 27.1765C181.763 27.5686 182.402 28 182.975 28.4706C183.548 28.9412 183.945 29.4118 184.165 29.8824C182.843 32.8627 181.696 35.6471 180.727 38.2353C179.801 40.7451 178.787 43.6471 177.685 46.9412C178.566 46.9412 179.448 46.902 180.33 46.8235C181.256 46.7451 182.181 46.6275 183.107 46.4706C183.328 46.8628 183.504 47.3726 183.636 48C183.768 48.549 183.835 49.1373 183.835 49.7647C181.674 51.1765 179.051 51.9608 175.965 52.1176C174.863 55.8824 173.871 59.6471 172.99 63.4118C172.152 67.098 171.425 70.6667 170.807 74.1176C170.234 77.5686 169.771 80.8235 169.419 83.8823C169.11 86.9412 168.956 89.6863 168.956 92.1176C168.956 95.5686 169.683 97.4902 171.138 97.8823C172.461 97.5686 173.717 96.9804 174.907 96.1176C176.098 95.2549 177.156 94.1569 178.081 92.8235C178.346 93.5294 178.5 94.1176 178.544 94.5882C178.28 95.2941 177.817 96.1176 177.156 97.0588C176.538 98 175.855 98.902 175.106 99.7647C174.356 100.706 173.629 101.49 172.923 102.118C172.218 102.745 171.689 103.098 171.336 103.176C170.234 103.098 169.132 102.667 168.03 101.882C166.928 101.098 165.914 100.118 164.988 98.9412C164.106 97.7647 163.379 96.4706 162.806 95.0588C162.233 93.5686 161.946 92.1176 161.946 90.7059C161.946 88.8235 162.079 86.4706 162.343 83.6471C162.652 80.7451 163.07 77.6078 163.599 74.2353C164.128 70.8627 164.746 67.3333 165.451 63.6471C166.156 59.9608 166.928 56.3137 167.766 52.7059H163.996ZM201.33 95.1765C200.492 93.9216 199.919 92.3529 199.61 90.4706C199.346 88.5882 199.214 86.9804 199.214 85.6471C199.214 84 199.324 82.5882 199.544 81.4118C199.368 81.4118 198.971 82.0392 198.354 83.2941C197.737 84.549 197.053 86.0392 196.304 87.7647C195.599 89.4902 194.893 91.1765 194.188 92.8235C193.483 94.4706 192.954 95.6863 192.601 96.4706C192.028 97.5686 191.477 98.4314 190.948 99.0588C190.463 99.6863 190.066 100.039 189.757 100.118C189.052 100.039 188.303 99.7647 187.509 99.2941C186.76 98.902 186.032 98.3137 185.327 97.5294C184.666 96.7451 184.07 95.8039 183.541 94.7059C183.056 93.6078 182.726 92.3529 182.549 90.9412C182.549 88.7451 182.572 86.9412 182.616 85.5294C182.704 84.1176 182.858 82.5882 183.078 80.9412C183.475 77.9608 184.048 74.5882 184.798 70.8235C185.591 67.0588 186.495 63.3726 187.509 59.7647C188.523 56.0784 189.647 52.6667 190.882 49.5294C192.16 46.3137 193.505 43.8039 194.915 42C195.312 42 195.775 42.0784 196.304 42.2353C196.833 42.3137 197.362 42.5098 197.891 42.8235C198.464 43.1373 198.993 43.5294 199.478 44C200.007 44.3922 200.448 44.9412 200.801 45.6471C200.404 46.4314 199.39 49.0588 197.759 53.5294C196.172 58 194.386 64.4314 192.402 72.8235C192.182 73.6863 191.918 74.9412 191.609 76.5882C191.3 78.2353 190.992 79.9608 190.683 81.7647C190.375 83.5686 190.11 85.3333 189.89 87.0588C189.713 88.7843 189.625 90.1569 189.625 91.1765C189.625 91.8039 189.669 92.2745 189.757 92.5882C189.89 92.902 190 93.1372 190.088 93.2941C190.749 92.8235 191.587 91.5294 192.601 89.4118C193.615 87.2941 195.026 84.0392 196.833 79.6471C197.274 78.549 197.781 77.2941 198.354 75.8824C198.971 74.4706 199.588 72.9804 200.206 71.4118C200.823 69.7647 201.396 68.0784 201.925 66.3529C202.498 64.6275 202.961 62.902 203.314 61.1765C203.49 60.2353 203.71 59.1373 203.975 57.8824C204.283 56.549 204.636 55.1765 205.033 53.7647C205.474 52.3529 205.959 50.9412 206.488 49.5294C207.061 48.0392 207.722 46.6667 208.472 45.4118C209.045 45.4118 209.662 45.5294 210.323 45.7647C210.984 46 211.602 46.3137 212.175 46.7059C212.792 47.0196 213.321 47.4118 213.762 47.8824C214.203 48.2745 214.533 48.7059 214.754 49.1765C213.96 52.6275 213.078 56.0392 212.109 59.4118C211.139 62.7843 210.235 66.1176 209.397 69.4118C208.56 72.6274 207.854 75.8431 207.281 79.0588C206.708 82.2745 206.422 85.4118 206.422 88.4706C206.422 90.1176 206.488 91.5686 206.62 92.8235C206.796 94 206.973 95.0196 207.149 95.8823C207.325 96.6667 207.48 97.3333 207.612 97.8823C207.788 98.4314 207.876 98.902 207.876 99.2941C207.876 99.3725 207.832 99.4902 207.744 99.6471C207.7 99.7255 207.656 99.7647 207.612 99.7647C207.303 99.7647 206.907 99.6471 206.422 99.4118C205.937 99.1765 205.386 98.8235 204.768 98.3529C204.195 97.9608 203.6 97.4902 202.983 96.9412C202.41 96.3922 201.859 95.8039 201.33 95.1765ZM230.177 42.8235C231.059 42.8235 232.073 43.2941 233.219 44.2353C234.365 45.1765 235.379 46.3922 236.261 47.8824C236.04 44.7451 235.754 41.8039 235.401 39.0588C235.092 36.2353 234.607 33.3333 233.946 30.3529C233.329 27.3726 232.491 24.1177 231.433 20.5882C230.375 17.0588 229.053 13.0196 227.466 8.47058C227.598 7.76471 227.884 6.94118 228.325 6C228.81 5.05882 229.339 4.19607 229.912 3.41176C230.53 2.54902 231.147 1.80393 231.764 1.17647C232.425 0.549018 233.042 0.156861 233.615 0C234.85 2.43138 236.018 5.4902 237.12 9.17647C238.222 12.7843 239.192 16.7059 240.03 20.9412C240.868 25.098 241.507 29.4118 241.948 33.8824C242.433 38.3529 242.675 42.6275 242.675 46.7059C242.675 50.7843 242.41 54.9804 241.881 59.2941C241.397 63.6078 240.691 67.8431 239.765 72C238.884 76.0784 237.848 79.9608 236.657 83.6471C235.467 87.3333 234.167 90.6274 232.756 93.5294C231.389 96.4314 229.956 98.7843 228.458 100.588C226.959 102.471 225.46 103.647 223.961 104.118C220.919 103.49 218.582 101.725 216.951 98.8235C215.364 96 214.571 92.0784 214.571 87.0588C214.571 84.3922 214.791 81.4902 215.232 78.3529C215.717 75.2157 216.334 72.1177 217.084 69.0588C217.877 65.9216 218.781 62.902 219.795 60C220.853 57.0196 221.955 54.3529 223.101 52C224.291 49.6471 225.482 47.6471 226.672 46C227.862 44.3529 229.031 43.2941 230.177 42.8235ZM223.432 99.4118C224.975 98.4706 226.518 96.3922 228.061 93.1765C229.604 89.9608 230.992 86.1961 232.227 81.8823C233.461 77.4902 234.453 72.8235 235.203 67.8824C235.996 62.8628 236.393 58.0392 236.393 53.4118C236.393 52.0784 236.393 51.2549 236.393 50.9412C236.393 50.6275 236.371 50.3137 236.327 50C235.269 50.7843 234.145 52.1176 232.954 54C231.764 55.8824 230.574 58.0784 229.383 60.5882C228.193 63.0196 227.069 65.6863 226.011 68.5882C224.953 71.4902 224.005 74.3922 223.167 77.2941C222.33 80.1961 221.668 82.9804 221.184 85.6471C220.699 88.3137 220.456 90.6667 220.456 92.7059C220.456 96.6274 221.448 98.8627 223.432 99.4118ZM244.435 89.8823C244.435 89.1765 244.457 88.3137 244.501 87.2941C244.589 86.1961 244.722 84.7843 244.898 83.0588C245.074 81.2549 245.295 79.098 245.559 76.5882C245.868 74.0784 246.243 71.0588 246.683 67.5294C246.772 66.7451 246.97 65.4902 247.279 63.7647C247.587 62.0392 247.984 60.2353 248.469 58.3529C248.998 56.3922 249.615 54.5098 250.32 52.7059C251.07 50.902 251.952 49.5686 252.966 48.7059C253.715 49.0196 254.707 49.8431 255.941 51.1765C257.176 52.4314 258.234 54.1961 259.115 56.4706C258.102 58.5098 257.242 60.549 256.536 62.5882C255.875 64.6275 255.258 66.7451 254.685 68.9412C254.156 71.1373 253.649 73.4118 253.164 75.7647C252.723 78.1176 252.216 80.5882 251.643 83.1765C251.158 85.3726 250.717 87.6471 250.32 90C249.924 92.2745 249.703 94.2745 249.659 96C249.659 97.4118 249.637 98.3922 249.593 98.9412C249.593 99.5686 249.483 99.8823 249.262 99.8823C249.086 99.8823 248.733 99.6863 248.204 99.2941C247.675 98.902 247.124 98.3137 246.551 97.5294C246.022 96.6667 245.537 95.6078 245.096 94.3529C244.656 93.098 244.435 91.6078 244.435 89.8823ZM257.065 38.8235C257.065 38.3529 257.132 37.6471 257.264 36.7059C257.043 36.3137 256.845 35.7255 256.669 34.9412C256.536 34.1569 256.47 33.451 256.47 32.8235C256.47 32.1176 256.514 31.1765 256.603 30C256.735 28.7451 256.889 27.4118 257.065 26C257.242 24.5882 257.462 23.1373 257.727 21.6471C257.991 20.0784 258.256 18.6667 258.52 17.4118C259.049 17.4118 259.689 17.6863 260.438 18.2353C261.232 18.7059 262.025 19.3726 262.819 20.2353C263.612 21.0196 264.34 21.9216 265.001 22.9412C265.662 23.8824 266.169 24.7843 266.522 25.6471C266.037 26.5098 265.398 27.7255 264.604 29.2941C263.811 30.7843 263.039 32.3922 262.29 34.1176C261.54 35.7647 260.857 37.3333 260.24 38.8235C259.622 40.3137 259.226 41.3726 259.049 42C258.52 41.8431 258.057 41.451 257.661 40.8235C257.264 40.1177 257.065 39.451 257.065 38.8235ZM267.8 101.882C265.287 101.412 263.281 99.451 261.782 96C260.283 92.549 259.534 88.1569 259.534 82.8235C259.534 79.6863 259.798 76.4314 260.327 73.0588C260.856 69.6863 261.606 66.4314 262.576 63.2941C263.545 60.0784 264.692 57.0588 266.014 54.2353C267.337 51.4118 268.77 48.9804 270.313 46.9412C272.737 43.7255 275.008 42.1176 277.124 42.1176C278.534 43.451 279.923 46.2353 281.29 50.4706C281.51 50.4706 281.709 50.4706 281.885 50.4706C282.061 50.3922 282.26 50.3529 282.48 50.3529C284.817 50.3529 285.985 54.0392 285.985 61.4118C285.985 66.3529 285.522 71.0588 284.596 75.5294C283.714 79.9216 282.458 83.9216 280.827 87.5294C279.24 91.1373 277.322 94.1961 275.074 96.7059C272.869 99.1373 270.445 100.863 267.8 101.882ZM271.172 64.8235C270.423 66.6274 269.717 68.5882 269.056 70.7059C268.395 72.8235 267.822 74.9804 267.337 77.1765C266.852 79.2941 266.477 81.3725 266.213 83.4118C265.948 85.3725 265.816 87.1373 265.816 88.7059C265.816 90.5882 265.992 92.3922 266.345 94.1176C266.698 95.8431 267.094 96.8235 267.535 97.0588C269.519 96.2745 271.326 94.8235 272.958 92.7059C274.633 90.5098 276.066 87.8039 277.256 84.5882C278.49 81.3726 279.438 77.7255 280.099 73.6471C280.805 69.5686 281.157 65.2157 281.157 60.5882C281.157 58.549 281.091 56.9412 280.959 55.7647C280.827 54.5882 280.606 53.5686 280.298 52.7059C278.358 53.7255 276.617 55.3726 275.074 57.6471C273.575 59.9216 272.274 62.3137 271.172 64.8235ZM312 50.9412C311.956 52.4314 311.802 54 311.537 55.6471C311.317 57.2157 311.03 58.6667 310.677 60C310.325 61.2549 309.95 62.3137 309.553 63.1765C309.157 64.0392 308.782 64.4706 308.429 64.4706C307.944 64.3922 307.658 63.8039 307.569 62.7059C307.569 62.4706 307.614 62.1176 307.702 61.6471C307.834 61.098 307.966 60.5098 308.098 59.8824C308.231 59.2549 308.341 58.6275 308.429 58C308.561 57.3726 308.628 56.8235 308.628 56.3529C308.628 55.2549 308.473 54.3529 308.165 53.6471C307.9 52.8627 307.525 52.4706 307.04 52.4706C305.277 52.4706 303.932 54.4314 303.007 58.3529C302.081 62.2745 301.618 68.0392 301.618 75.6471C301.618 76.4314 301.64 76.902 301.684 77.0588C302.61 76.9804 303.425 76.9412 304.131 76.9412C304.88 76.8627 305.608 76.8235 306.313 76.8235C306.357 76.9804 306.379 77.2941 306.379 77.7647C306.379 78.4706 306.291 78.9804 306.115 79.2941C305.101 79.6863 304.285 80.0392 303.668 80.3529C303.095 80.5882 302.654 80.8235 302.345 81.0588C302.037 81.2941 301.838 81.5686 301.75 81.8823C301.706 82.1176 301.684 82.4706 301.684 82.9412C301.684 83.5686 301.684 84.1961 301.684 84.8235C301.728 85.451 301.75 86.2353 301.75 87.1765C301.75 93.7647 300.736 99.0588 298.708 103.059C296.725 107.059 293.947 109.373 290.376 110C289.759 109.922 289.12 109.608 288.459 109.059C287.797 108.51 287.158 107.804 286.541 106.941C285.968 106.078 285.461 105.098 285.02 104C284.579 102.98 284.27 101.922 284.094 100.824C284.094 97.8431 284.447 95.0196 285.152 92.3529C285.857 89.6078 286.805 87.2157 287.996 85.1765C289.23 83.0588 290.663 81.3725 292.294 80.1176C293.969 78.7843 295.777 78 297.716 77.7647C297.716 75.8039 297.606 73.8824 297.386 72C297.165 70.1177 296.923 68.3137 296.658 66.5882C296.438 64.7843 296.218 63.0588 295.997 61.4118C295.777 59.6863 295.666 58 295.666 56.3529C295.666 54.2353 295.909 52.1569 296.394 50.1176C296.879 48 297.518 46.0784 298.312 44.3529C299.105 42.549 300.031 41.0196 301.089 39.7647C302.147 38.5098 303.249 37.6471 304.395 37.1765C304.88 37.4118 305.52 38.1176 306.313 39.2941C307.151 40.3922 307.966 41.6471 308.76 43.0588C309.553 44.4706 310.259 45.9216 310.876 47.4118C311.493 48.8235 311.868 50 312 50.9412ZM290.178 104.588C291.236 103.804 292.228 102.667 293.154 101.176C294.124 99.6863 294.961 98 295.666 96.1176C296.372 94.2353 296.923 92.2353 297.32 90.1176C297.76 88 297.981 85.9216 297.981 83.8823C297.099 84.1176 296.129 84.8627 295.071 86.1176C294.013 87.2941 293.021 88.7451 292.096 90.4706C291.17 92.1176 290.398 93.8431 289.781 95.6471C289.164 97.451 288.855 99.0196 288.855 100.353C288.855 102.078 289.296 103.49 290.178 104.588Z" fill="white"/>
</svg>
