<svg width="57" height="12" viewBox="0 0 57 12" fill="none" xmlns="http://www.w3.org/2000/svg">
<path d="M1.28 10.912C0.824 10.776 0.516 10.644 0.356 10.516C0.196 10.396 0.116 10.228 0.116 10.012C0.116 9.772 0.172 9.436 0.284 9.004C0.396 8.564 0.54 8.076 0.716 7.54C0.9 7.004 1.108 6.444 1.34 5.86C1.572 5.276 1.808 4.716 2.048 4.18C2.288 3.644 2.52 3.156 2.744 2.716C2.976 2.268 3.18 1.92 3.356 1.672L3.272 1.168C3.384 1.168 3.54 1.196 3.74 1.252C3.94 1.308 4.14 1.376 4.34 1.456C4.548 1.536 4.728 1.62 4.88 1.708C5.04 1.788 5.128 1.856 5.144 1.912C5.104 2.104 5.072 2.396 5.048 2.788C5.024 3.172 5.012 3.584 5.012 4.024C5.012 4.896 5.044 5.752 5.108 6.592C5.18 7.424 5.34 8.272 5.588 9.136C5.716 8.496 5.852 7.86 5.996 7.228C6.148 6.588 6.304 5.98 6.464 5.404C6.624 4.82 6.784 4.28 6.944 3.784C7.104 3.288 7.256 2.856 7.4 2.488C7.552 2.112 7.692 1.82 7.82 1.612C7.948 1.396 8.064 1.28 8.168 1.264C8.256 1.28 8.352 1.316 8.456 1.372C8.56 1.42 8.66 1.48 8.756 1.552C8.852 1.624 8.94 1.704 9.02 1.792C9.1 1.88 9.164 1.968 9.212 2.056C8.956 2.16 8.7 2.404 8.444 2.788C8.196 3.172 7.956 3.64 7.724 4.192C7.5 4.736 7.288 5.328 7.088 5.968C6.896 6.608 6.724 7.24 6.572 7.864C6.428 8.48 6.312 9.052 6.224 9.58C6.144 10.108 6.1 10.532 6.092 10.852C6.092 10.868 6.096 10.88 6.104 10.888C6.08 10.896 6.052 10.9 6.02 10.9C5.996 10.9 5.972 10.9 5.948 10.9C5.58 10.9 5.252 10.852 4.964 10.756C4.684 10.668 4.5 10.54 4.412 10.372C4.244 9.7 4.104 9.052 3.992 8.428C3.88 7.804 3.784 7.18 3.704 6.556C3.632 5.932 3.572 5.304 3.524 4.672C3.484 4.032 3.452 3.364 3.428 2.668C3.276 2.908 3.116 3.224 2.948 3.616C2.78 4 2.616 4.424 2.456 4.888C2.296 5.352 2.14 5.84 1.988 6.352C1.844 6.864 1.716 7.364 1.604 7.852C1.492 8.34 1.404 8.804 1.34 9.244C1.276 9.676 1.244 10.052 1.244 10.372C1.244 10.54 1.244 10.66 1.244 10.732C1.252 10.804 1.264 10.864 1.28 10.912ZM12.3233 5.032C12.2913 5.528 12.2033 5.956 12.0593 6.316C11.9153 6.668 11.7073 6.98 11.4353 7.252C11.1713 7.516 10.8473 7.756 10.4633 7.972C10.0793 8.188 9.63128 8.396 9.11928 8.596C9.11928 8.644 9.11528 8.696 9.10728 8.752C9.10728 8.8 9.10728 8.852 9.10728 8.908C9.10728 9.012 9.11528 9.12 9.13128 9.232C9.14728 9.344 9.17528 9.448 9.21528 9.544C9.25528 9.64 9.31128 9.72 9.38328 9.784C9.45528 9.84 9.54728 9.868 9.65928 9.868C9.87528 9.868 10.0873 9.82 10.2953 9.724C10.5033 9.628 10.6993 9.512 10.8833 9.376C11.0753 9.232 11.2513 9.08 11.4113 8.92C11.5793 8.752 11.7273 8.6 11.8553 8.464C11.9353 8.536 12.0033 8.604 12.0593 8.668C11.6993 9.148 11.3033 9.548 10.8713 9.868C10.4473 10.18 10.0433 10.38 9.65928 10.468C9.10728 10.404 8.67528 10.204 8.36328 9.868C8.05928 9.524 7.90728 9.112 7.90728 8.632C7.90728 8.304 7.95128 7.972 8.03928 7.636C8.13528 7.292 8.26328 6.964 8.42328 6.652C8.59128 6.332 8.78328 6.032 8.99928 5.752C9.22328 5.472 9.45928 5.228 9.70728 5.02C9.96328 4.812 10.2233 4.648 10.4873 4.528C10.7593 4.408 11.0273 4.348 11.2913 4.348C11.6593 4.396 12.0033 4.624 12.3233 5.032ZM11.4953 5.428C11.2793 5.46 11.0553 5.548 10.8233 5.692C10.5913 5.836 10.3713 6.028 10.1633 6.268C9.96328 6.508 9.77928 6.788 9.61128 7.108C9.44328 7.428 9.31128 7.772 9.21528 8.14C9.85528 7.82 10.3873 7.428 10.8113 6.964C11.2353 6.492 11.4633 5.98 11.4953 5.428ZM13.5048 5.404C13.4648 5.356 13.4288 5.256 13.3968 5.104C13.3648 4.944 13.3488 4.808 13.3488 4.696C13.5568 4.712 13.7568 4.728 13.9488 4.744C14.1408 4.752 14.3168 4.76 14.4768 4.768C14.5968 4.528 14.7248 4.292 14.8608 4.06C15.0048 3.82 15.1408 3.604 15.2688 3.412C15.4048 3.212 15.5288 3.044 15.6408 2.908C15.7608 2.772 15.8528 2.684 15.9168 2.644C15.9968 2.644 16.0968 2.66 16.2168 2.692C16.3448 2.716 16.4728 2.752 16.6008 2.8C16.7288 2.84 16.8448 2.884 16.9488 2.932C17.0528 2.98 17.1248 3.028 17.1648 3.076C16.9248 3.38 16.7168 3.664 16.5408 3.928C16.3728 4.184 16.1888 4.48 15.9888 4.816C16.1488 4.816 16.3088 4.812 16.4688 4.804C16.6368 4.796 16.8048 4.784 16.9728 4.768C17.0128 4.808 17.0448 4.86 17.0688 4.924C17.0928 4.98 17.1048 5.04 17.1048 5.104C16.7128 5.248 16.2368 5.328 15.6768 5.344C15.4768 5.728 15.2968 6.112 15.1368 6.496C14.9848 6.872 14.8528 7.236 14.7408 7.588C14.6368 7.94 14.5528 8.272 14.4888 8.584C14.4328 8.896 14.4048 9.176 14.4048 9.424C14.4048 9.776 14.5368 9.972 14.8008 10.012C15.0408 9.98 15.2688 9.92 15.4848 9.832C15.7008 9.744 15.8928 9.632 16.0608 9.496C16.1088 9.568 16.1368 9.628 16.1448 9.676C16.0968 9.748 16.0128 9.832 15.8928 9.928C15.7808 10.024 15.6568 10.116 15.5208 10.204C15.3848 10.3 15.2528 10.38 15.1248 10.444C14.9968 10.508 14.9008 10.544 14.8368 10.552C14.6368 10.544 14.4368 10.5 14.2368 10.42C14.0368 10.34 13.8528 10.24 13.6848 10.12C13.5248 10 13.3928 9.868 13.2888 9.724C13.1848 9.572 13.1328 9.424 13.1328 9.28C13.1328 9.088 13.1568 8.848 13.2048 8.56C13.2608 8.264 13.3368 7.944 13.4328 7.6C13.5288 7.256 13.6408 6.896 13.7688 6.52C13.8968 6.144 14.0368 5.772 14.1888 5.404H13.5048ZM17.7236 5.404C17.6836 5.356 17.6476 5.256 17.6156 5.104C17.5836 4.944 17.5676 4.808 17.5676 4.696C17.7756 4.712 17.9756 4.728 18.1676 4.744C18.3596 4.752 18.5356 4.76 18.6956 4.768C18.8156 4.528 18.9436 4.292 19.0796 4.06C19.2236 3.82 19.3596 3.604 19.4876 3.412C19.6236 3.212 19.7476 3.044 19.8596 2.908C19.9796 2.772 20.0716 2.684 20.1356 2.644C20.2156 2.644 20.3156 2.66 20.4356 2.692C20.5636 2.716 20.6916 2.752 20.8196 2.8C20.9476 2.84 21.0636 2.884 21.1676 2.932C21.2716 2.98 21.3436 3.028 21.3836 3.076C21.1436 3.38 20.9356 3.664 20.7596 3.928C20.5916 4.184 20.4076 4.48 20.2076 4.816C20.3676 4.816 20.5276 4.812 20.6876 4.804C20.8556 4.796 21.0236 4.784 21.1916 4.768C21.2316 4.808 21.2636 4.86 21.2876 4.924C21.3116 4.98 21.3236 5.04 21.3236 5.104C20.9316 5.248 20.4556 5.328 19.8956 5.344C19.6956 5.728 19.5156 6.112 19.3556 6.496C19.2036 6.872 19.0716 7.236 18.9596 7.588C18.8556 7.94 18.7716 8.272 18.7076 8.584C18.6516 8.896 18.6236 9.176 18.6236 9.424C18.6236 9.776 18.7556 9.972 19.0196 10.012C19.2596 9.98 19.4876 9.92 19.7036 9.832C19.9196 9.744 20.1116 9.632 20.2796 9.496C20.3276 9.568 20.3556 9.628 20.3636 9.676C20.3156 9.748 20.2316 9.832 20.1116 9.928C19.9996 10.024 19.8756 10.116 19.7396 10.204C19.6036 10.3 19.4716 10.38 19.3436 10.444C19.2156 10.508 19.1196 10.544 19.0556 10.552C18.8556 10.544 18.6556 10.5 18.4556 10.42C18.2556 10.34 18.0716 10.24 17.9036 10.12C17.7436 10 17.6116 9.868 17.5076 9.724C17.4036 9.572 17.3516 9.424 17.3516 9.28C17.3516 9.088 17.3756 8.848 17.4236 8.56C17.4796 8.264 17.5556 7.944 17.6516 7.6C17.7476 7.256 17.8596 6.896 17.9876 6.52C18.1156 6.144 18.2556 5.772 18.4076 5.404H17.7236ZM28.9188 1.912C28.9428 2.048 28.9588 2.144 28.9668 2.2C28.9828 2.248 28.9908 2.316 28.9908 2.404C28.9908 2.668 28.9308 2.916 28.8108 3.148C28.6988 3.372 28.5428 3.532 28.3428 3.628C28.1828 3.412 27.9868 3.228 27.7548 3.076C27.5228 2.916 27.2668 2.788 26.9868 2.692C26.7148 2.588 26.4308 2.512 26.1348 2.464C25.8388 2.416 25.5508 2.392 25.2708 2.392C24.9908 2.392 24.7268 2.416 24.4788 2.464C24.2388 2.504 24.0228 2.564 23.8308 2.644C23.6468 2.716 23.4988 2.808 23.3868 2.92C23.2828 3.032 23.2308 3.16 23.2308 3.304C23.2548 3.48 23.3628 3.66 23.5548 3.844C23.7468 4.02 23.9828 4.196 24.2628 4.372C24.5428 4.54 24.8508 4.708 25.1868 4.876C25.5308 5.044 25.8668 5.204 26.1948 5.356C26.6028 5.548 26.9548 5.728 27.2508 5.896C27.5468 6.056 27.7908 6.236 27.9828 6.436C28.1748 6.628 28.3188 6.848 28.4148 7.096C28.5108 7.344 28.5588 7.644 28.5588 7.996C28.5588 8.404 28.4908 8.788 28.3548 9.148C28.2188 9.5 28.0188 9.808 27.7548 10.072C27.4988 10.336 27.1868 10.54 26.8188 10.684C26.4508 10.836 26.0388 10.912 25.5828 10.912C25.1348 10.912 24.6508 10.844 24.1308 10.708C23.6108 10.572 23.1228 10.384 22.6668 10.144C22.2188 9.912 21.8428 9.644 21.5388 9.34C21.2428 9.028 21.0948 8.7 21.0948 8.356C21.0948 8.196 21.1388 7.992 21.2268 7.744C21.3228 7.496 21.4908 7.236 21.7308 6.964C21.7548 7.204 21.8828 7.488 22.1148 7.816C22.3548 8.144 22.7108 8.448 23.1828 8.728C23.6228 8.984 24.0748 9.172 24.5388 9.292C25.0108 9.404 25.4508 9.46 25.8588 9.46C26.3068 9.46 26.6708 9.404 26.9508 9.292C27.2308 9.18 27.4508 9.048 27.6108 8.896C27.7708 8.736 27.8828 8.576 27.9468 8.416C28.0108 8.256 28.0468 8.128 28.0548 8.032C28.0468 7.872 27.9708 7.72 27.8268 7.576C27.6908 7.424 27.5028 7.28 27.2628 7.144C27.0308 7 26.7588 6.856 26.4468 6.712C26.1348 6.568 25.8108 6.424 25.4748 6.28C24.9708 6.056 24.5348 5.848 24.1668 5.656C23.8068 5.456 23.5068 5.256 23.2668 5.056C23.0348 4.848 22.8628 4.632 22.7508 4.408C22.6468 4.184 22.5948 3.928 22.5948 3.64C22.5948 3.192 22.7308 2.768 23.0028 2.368C23.2748 1.968 23.6668 1.664 24.1788 1.456C24.4348 1.344 24.7068 1.264 24.9948 1.216C25.2908 1.168 25.5788 1.144 25.8588 1.144C26.3868 1.144 26.9028 1.216 27.4068 1.36C27.9108 1.504 28.4148 1.688 28.9188 1.912ZM29.8759 5.404C29.8359 5.356 29.7999 5.256 29.7679 5.104C29.7359 4.944 29.7199 4.808 29.7199 4.696C29.9279 4.712 30.1279 4.728 30.3199 4.744C30.5119 4.752 30.6879 4.76 30.8479 4.768C30.9679 4.528 31.0959 4.292 31.2319 4.06C31.3759 3.82 31.5119 3.604 31.6399 3.412C31.7759 3.212 31.8999 3.044 32.0119 2.908C32.1319 2.772 32.2239 2.684 32.2879 2.644C32.3679 2.644 32.4679 2.66 32.5879 2.692C32.7159 2.716 32.8439 2.752 32.9719 2.8C33.0999 2.84 33.2159 2.884 33.3199 2.932C33.4239 2.98 33.4959 3.028 33.5359 3.076C33.2959 3.38 33.0879 3.664 32.9119 3.928C32.7439 4.184 32.5599 4.48 32.3599 4.816C32.5199 4.816 32.6799 4.812 32.8399 4.804C33.0079 4.796 33.1759 4.784 33.3439 4.768C33.3839 4.808 33.4159 4.86 33.4399 4.924C33.4639 4.98 33.4759 5.04 33.4759 5.104C33.0839 5.248 32.6079 5.328 32.0479 5.344C31.8479 5.728 31.6679 6.112 31.5079 6.496C31.3559 6.872 31.2239 7.236 31.1119 7.588C31.0079 7.94 30.9239 8.272 30.8599 8.584C30.8039 8.896 30.7759 9.176 30.7759 9.424C30.7759 9.776 30.9079 9.972 31.1719 10.012C31.4119 9.98 31.6399 9.92 31.8559 9.832C32.0719 9.744 32.2639 9.632 32.4319 9.496C32.4799 9.568 32.5079 9.628 32.5159 9.676C32.4679 9.748 32.3839 9.832 32.2639 9.928C32.1519 10.024 32.0279 10.116 31.8919 10.204C31.7559 10.3 31.6239 10.38 31.4959 10.444C31.3679 10.508 31.2719 10.544 31.2079 10.552C31.0079 10.544 30.8079 10.5 30.6079 10.42C30.4079 10.34 30.2239 10.24 30.0559 10.12C29.8959 10 29.7639 9.868 29.6599 9.724C29.5559 9.572 29.5039 9.424 29.5039 9.28C29.5039 9.088 29.5279 8.848 29.5759 8.56C29.6319 8.264 29.7079 7.944 29.8039 7.6C29.8999 7.256 30.0119 6.896 30.1399 6.52C30.2679 6.144 30.4079 5.772 30.5599 5.404H29.8759ZM36.6507 9.736C36.4987 9.608 36.3947 9.448 36.3387 9.256C36.2907 9.064 36.2667 8.9 36.2667 8.764C36.2667 8.596 36.2867 8.452 36.3267 8.332C36.2947 8.332 36.2227 8.396 36.1107 8.524C35.9987 8.652 35.8747 8.804 35.7387 8.98C35.6107 9.156 35.4827 9.328 35.3547 9.496C35.2267 9.664 35.1307 9.788 35.0667 9.868C34.9627 9.98 34.8627 10.068 34.7667 10.132C34.6787 10.196 34.6067 10.232 34.5507 10.24C34.4227 10.232 34.2867 10.204 34.1427 10.156C34.0067 10.116 33.8747 10.056 33.7467 9.976C33.6267 9.896 33.5187 9.8 33.4227 9.688C33.3347 9.576 33.2747 9.448 33.2427 9.304C33.2427 9.08 33.2467 8.896 33.2547 8.752C33.2707 8.608 33.2987 8.452 33.3387 8.284C33.4107 7.98 33.5147 7.636 33.6507 7.252C33.7947 6.868 33.9587 6.492 34.1427 6.124C34.3267 5.748 34.5307 5.4 34.7547 5.08C34.9867 4.752 35.2307 4.496 35.4867 4.312C35.5587 4.312 35.6427 4.32 35.7387 4.336C35.8347 4.344 35.9307 4.364 36.0267 4.396C36.1307 4.428 36.2267 4.468 36.3147 4.516C36.4107 4.556 36.4907 4.612 36.5547 4.684C36.4827 4.764 36.2987 5.032 36.0027 5.488C35.7147 5.944 35.3907 6.6 35.0307 7.456C34.9907 7.544 34.9427 7.672 34.8867 7.84C34.8307 8.008 34.7747 8.184 34.7187 8.368C34.6627 8.552 34.6147 8.732 34.5747 8.908C34.5427 9.084 34.5267 9.224 34.5267 9.328C34.5267 9.392 34.5347 9.44 34.5507 9.472C34.5747 9.504 34.5947 9.528 34.6107 9.544C34.7307 9.496 34.8827 9.364 35.0667 9.148C35.2507 8.932 35.5067 8.6 35.8347 8.152C35.9147 8.04 36.0067 7.912 36.1107 7.768C36.2227 7.624 36.3347 7.472 36.4467 7.312C36.5587 7.144 36.6627 6.972 36.7587 6.796C36.8627 6.62 36.9467 6.444 37.0107 6.268C37.0427 6.172 37.0827 6.06 37.1307 5.932C37.1867 5.796 37.2507 5.656 37.3227 5.512C37.4027 5.368 37.4907 5.224 37.5867 5.08C37.6907 4.928 37.8107 4.788 37.9467 4.66C38.0507 4.66 38.1627 4.672 38.2827 4.696C38.4027 4.72 38.5147 4.752 38.6187 4.792C38.7307 4.824 38.8267 4.864 38.9067 4.912C38.9867 4.952 39.0467 4.996 39.0867 5.044C38.9427 5.396 38.7827 5.744 38.6067 6.088C38.4307 6.432 38.2667 6.772 38.1147 7.108C37.9627 7.436 37.8347 7.764 37.7307 8.092C37.6267 8.42 37.5747 8.74 37.5747 9.052C37.5747 9.22 37.5867 9.368 37.6107 9.496C37.6427 9.616 37.6747 9.72 37.7067 9.808C37.7387 9.888 37.7667 9.956 37.7907 10.012C37.8227 10.068 37.8387 10.116 37.8387 10.156C37.8387 10.164 37.8307 10.176 37.8147 10.192C37.8067 10.2 37.7987 10.204 37.7907 10.204C37.7347 10.204 37.6627 10.192 37.5747 10.168C37.4867 10.144 37.3867 10.108 37.2747 10.06C37.1707 10.02 37.0627 9.972 36.9507 9.916C36.8467 9.86 36.7467 9.8 36.6507 9.736ZM41.8855 4.396C42.0455 4.396 42.2295 4.444 42.4375 4.54C42.6455 4.636 42.8295 4.76 42.9895 4.912C42.9495 4.592 42.8975 4.292 42.8335 4.012C42.7775 3.724 42.6895 3.428 42.5695 3.124C42.4575 2.82 42.3055 2.488 42.1135 2.128C41.9215 1.768 41.6815 1.356 41.3935 0.891999C41.4175 0.82 41.4695 0.736 41.5495 0.64C41.6375 0.543999 41.7335 0.455999 41.8375 0.375999C41.9495 0.288 42.0615 0.212 42.1735 0.148C42.2935 0.0839994 42.4055 0.0439994 42.5095 0.0279996C42.7335 0.276 42.9455 0.588 43.1455 0.964C43.3455 1.332 43.5215 1.732 43.6735 2.164C43.8255 2.588 43.9415 3.028 44.0215 3.484C44.1095 3.94 44.1535 4.376 44.1535 4.792C44.1535 5.208 44.1055 5.636 44.0095 6.076C43.9215 6.516 43.7935 6.948 43.6255 7.372C43.4655 7.788 43.2775 8.184 43.0615 8.56C42.8455 8.936 42.6095 9.272 42.3535 9.568C42.1055 9.864 41.8455 10.104 41.5735 10.288C41.3015 10.48 41.0295 10.6 40.7575 10.648C40.2055 10.584 39.7815 10.404 39.4855 10.108C39.1975 9.82 39.0535 9.42 39.0535 8.908C39.0535 8.636 39.0935 8.34 39.1735 8.02C39.2615 7.7 39.3735 7.384 39.5095 7.072C39.6535 6.752 39.8175 6.444 40.0015 6.148C40.1935 5.844 40.3935 5.572 40.6015 5.332C40.8175 5.092 41.0335 4.888 41.2495 4.72C41.4655 4.552 41.6775 4.444 41.8855 4.396ZM40.6615 10.168C40.9415 10.072 41.2215 9.86 41.5015 9.532C41.7815 9.204 42.0335 8.82 42.2575 8.38C42.4815 7.932 42.6615 7.456 42.7975 6.952C42.9415 6.44 43.0135 5.948 43.0135 5.476C43.0135 5.34 43.0135 5.256 43.0135 5.224C43.0135 5.192 43.0095 5.16 43.0015 5.128C42.8095 5.208 42.6055 5.344 42.3895 5.536C42.1735 5.728 41.9575 5.952 41.7415 6.208C41.5255 6.456 41.3215 6.728 41.1295 7.024C40.9375 7.32 40.7655 7.616 40.6135 7.912C40.4615 8.208 40.3415 8.492 40.2535 8.764C40.1655 9.036 40.1215 9.276 40.1215 9.484C40.1215 9.884 40.3015 10.112 40.6615 10.168ZM44.4729 9.196C44.4729 9.124 44.4769 9.036 44.4849 8.932C44.5009 8.82 44.5249 8.676 44.5569 8.5C44.5889 8.316 44.6289 8.096 44.6769 7.84C44.7329 7.584 44.8009 7.276 44.8809 6.916C44.8969 6.836 44.9329 6.708 44.9889 6.532C45.0449 6.356 45.1169 6.172 45.2049 5.98C45.3009 5.78 45.4129 5.588 45.5409 5.404C45.6769 5.22 45.8369 5.084 46.0209 4.996C46.1569 5.028 46.3369 5.112 46.5609 5.248C46.7849 5.376 46.9769 5.556 47.1369 5.788C46.9529 5.996 46.7969 6.204 46.6689 6.412C46.5489 6.62 46.4369 6.836 46.3329 7.06C46.2369 7.284 46.1449 7.516 46.0569 7.756C45.9769 7.996 45.8849 8.248 45.7809 8.512C45.6929 8.736 45.6129 8.968 45.5409 9.208C45.4689 9.44 45.4289 9.644 45.4209 9.82C45.4209 9.964 45.4169 10.064 45.4089 10.12C45.4089 10.184 45.3889 10.216 45.3489 10.216C45.3169 10.216 45.2529 10.196 45.1569 10.156C45.0609 10.116 44.9609 10.056 44.8569 9.976C44.7609 9.888 44.6729 9.78 44.5929 9.652C44.5129 9.524 44.4729 9.372 44.4729 9.196ZM46.7649 3.988C46.7649 3.94 46.7769 3.868 46.8009 3.772C46.7609 3.732 46.7249 3.672 46.6929 3.592C46.6689 3.512 46.6569 3.44 46.6569 3.376C46.6569 3.304 46.6649 3.208 46.6809 3.088C46.7049 2.96 46.7329 2.824 46.7649 2.68C46.7969 2.536 46.8369 2.388 46.8849 2.236C46.9329 2.076 46.9809 1.932 47.0289 1.804C47.1249 1.804 47.2409 1.832 47.3769 1.888C47.5209 1.936 47.6649 2.004 47.8089 2.092C47.9529 2.172 48.0849 2.264 48.2049 2.368C48.3249 2.464 48.4169 2.556 48.4809 2.644C48.3929 2.732 48.2769 2.856 48.1329 3.016C47.9889 3.168 47.8489 3.332 47.7129 3.508C47.5769 3.676 47.4529 3.836 47.3409 3.988C47.2289 4.14 47.1569 4.248 47.1249 4.312C47.0289 4.296 46.9449 4.256 46.8729 4.192C46.8009 4.12 46.7649 4.052 46.7649 3.988ZM48.7128 10.42C48.2568 10.372 47.8928 10.172 47.6208 9.82C47.3488 9.468 47.2128 9.02 47.2128 8.476C47.2128 8.156 47.2608 7.824 47.3568 7.48C47.4528 7.136 47.5888 6.804 47.7648 6.484C47.9408 6.156 48.1488 5.848 48.3888 5.56C48.6288 5.272 48.8888 5.024 49.1688 4.816C49.6088 4.488 50.0208 4.324 50.4048 4.324C50.6608 4.46 50.9128 4.744 51.1608 5.176C51.2008 5.176 51.2368 5.176 51.2688 5.176C51.3008 5.168 51.3368 5.164 51.3768 5.164C51.8008 5.164 52.0128 5.54 52.0128 6.292C52.0128 6.796 51.9288 7.276 51.7608 7.732C51.6008 8.18 51.3728 8.588 51.0768 8.956C50.7888 9.324 50.4408 9.636 50.0328 9.892C49.6328 10.14 49.1928 10.316 48.7128 10.42ZM49.3248 6.64C49.1888 6.824 49.0608 7.024 48.9408 7.24C48.8208 7.456 48.7168 7.676 48.6288 7.9C48.5408 8.116 48.4728 8.328 48.4248 8.536C48.3768 8.736 48.3528 8.916 48.3528 9.076C48.3528 9.268 48.3848 9.452 48.4488 9.628C48.5128 9.804 48.5848 9.904 48.6648 9.928C49.0248 9.848 49.3528 9.7 49.6488 9.484C49.9528 9.26 50.2128 8.984 50.4288 8.656C50.6528 8.328 50.8248 7.956 50.9448 7.54C51.0728 7.124 51.1368 6.68 51.1368 6.208C51.1368 6 51.1248 5.836 51.1008 5.716C51.0768 5.596 51.0368 5.492 50.9808 5.404C50.6288 5.508 50.3128 5.676 50.0328 5.908C49.7608 6.14 49.5248 6.384 49.3248 6.64ZM56.7337 5.224C56.7257 5.376 56.6977 5.536 56.6497 5.704C56.6097 5.864 56.5577 6.012 56.4937 6.148C56.4297 6.276 56.3617 6.384 56.2897 6.472C56.2177 6.56 56.1497 6.604 56.0857 6.604C55.9977 6.596 55.9457 6.536 55.9297 6.424C55.9297 6.4 55.9377 6.364 55.9537 6.316C55.9777 6.26 56.0017 6.2 56.0257 6.136C56.0497 6.072 56.0697 6.008 56.0857 5.944C56.1097 5.88 56.1217 5.824 56.1217 5.776C56.1217 5.664 56.0937 5.572 56.0377 5.5C55.9897 5.42 55.9217 5.38 55.8337 5.38C55.5137 5.38 55.2697 5.58 55.1017 5.98C54.9337 6.38 54.8497 6.968 54.8497 7.744C54.8497 7.824 54.8537 7.872 54.8617 7.888C55.0297 7.88 55.1777 7.876 55.3057 7.876C55.4417 7.868 55.5737 7.864 55.7017 7.864C55.7097 7.88 55.7137 7.912 55.7137 7.96C55.7137 8.032 55.6977 8.084 55.6657 8.116C55.4817 8.156 55.3337 8.192 55.2217 8.224C55.1177 8.248 55.0377 8.272 54.9817 8.296C54.9257 8.32 54.8897 8.348 54.8737 8.38C54.8657 8.404 54.8617 8.44 54.8617 8.488C54.8617 8.552 54.8617 8.616 54.8617 8.68C54.8697 8.744 54.8737 8.824 54.8737 8.92C54.8737 9.592 54.6897 10.132 54.3217 10.54C53.9617 10.948 53.4577 11.184 52.8097 11.248C52.6977 11.24 52.5817 11.208 52.4617 11.152C52.3417 11.096 52.2257 11.024 52.1137 10.936C52.0097 10.848 51.9177 10.748 51.8377 10.636C51.7577 10.532 51.7017 10.424 51.6697 10.312C51.6697 10.008 51.7337 9.72 51.8617 9.448C51.9897 9.168 52.1617 8.924 52.3777 8.716C52.6017 8.5 52.8617 8.328 53.1577 8.2C53.4617 8.064 53.7897 7.984 54.1417 7.96C54.1417 7.76 54.1217 7.564 54.0817 7.372C54.0417 7.18 53.9977 6.996 53.9497 6.82C53.9097 6.636 53.8697 6.46 53.8297 6.292C53.7897 6.116 53.7697 5.944 53.7697 5.776C53.7697 5.56 53.8137 5.348 53.9017 5.14C53.9897 4.924 54.1057 4.728 54.2497 4.552C54.3937 4.368 54.5617 4.212 54.7537 4.084C54.9457 3.956 55.1457 3.868 55.3537 3.82C55.4417 3.844 55.5577 3.916 55.7017 4.036C55.8537 4.148 56.0017 4.276 56.1457 4.42C56.2897 4.564 56.4177 4.712 56.5297 4.864C56.6417 5.008 56.7097 5.128 56.7337 5.224ZM52.7737 10.696C52.9657 10.616 53.1457 10.5 53.3137 10.348C53.4897 10.196 53.6417 10.024 53.7697 9.832C53.8977 9.64 53.9977 9.436 54.0697 9.22C54.1497 9.004 54.1897 8.792 54.1897 8.584C54.0297 8.608 53.8537 8.684 53.6617 8.812C53.4697 8.932 53.2897 9.08 53.1217 9.256C52.9537 9.424 52.8137 9.6 52.7017 9.784C52.5897 9.968 52.5337 10.128 52.5337 10.264C52.5337 10.44 52.6137 10.584 52.7737 10.696Z" fill="#0B046C"/>
</svg>
