<svg width="25" height="25" viewBox="0 0 25 25" fill="none" xmlns="http://www.w3.org/2000/svg">
<path d="M12.502 24.1774C9.32445 24.1774 8.94987 24.1606 7.70987 24.1063C6.74289 24.0745 5.78843 23.8779 4.88758 23.5251C3.32894 22.9185 2.09647 21.6856 1.49049 20.1267C1.15118 19.2226 0.968168 18.2673 0.949286 17.3018C0.876953 16.0644 0.876953 15.6588 0.876953 12.5059C0.876953 9.31932 0.893745 8.94732 0.949286 7.71378C0.968581 6.74957 1.15159 5.79566 1.49049 4.89278C2.09581 3.33184 3.33028 2.09783 4.89145 1.49311C5.79387 1.15237 6.74803 0.968879 7.71245 0.950609C8.946 0.880859 9.35158 0.880859 12.502 0.880859C15.7053 0.880859 16.0734 0.897651 17.294 0.950609C18.261 0.969037 19.2176 1.15251 20.1228 1.49311C21.6835 2.09852 22.9177 3.33228 23.5237 4.89278C23.8688 5.80882 24.0528 6.77764 24.0675 7.7564C24.1399 8.99382 24.1399 9.39811 24.1399 12.5498C24.1399 15.7014 24.1218 16.1148 24.0675 17.338C24.0483 18.3044 23.8649 19.2605 23.525 20.1654C22.9175 21.7254 21.6832 22.9588 20.1228 23.5651C19.2189 23.9038 18.2642 24.0868 17.2992 24.1063C16.0657 24.1774 15.6614 24.1774 12.502 24.1774ZM12.458 2.92557C9.29862 2.92557 8.97054 2.94107 7.737 2.99661C7.00073 3.00636 6.27157 3.14223 5.5812 3.39832C4.56176 3.78841 3.75508 4.59181 3.36083 5.60965C3.10277 6.30754 2.96688 7.04467 2.95912 7.78869C2.89066 9.04032 2.89066 9.3684 2.89066 12.5059C2.89066 15.6059 2.90229 15.9817 2.95912 17.2256C2.97068 17.9621 3.10649 18.6914 3.36083 19.3827C3.75566 20.3999 4.5622 21.2027 5.5812 21.5927C6.2711 21.8505 7.00055 21.9864 7.737 21.9944C8.98733 22.0668 9.3167 22.0668 12.458 22.0668C15.6265 22.0668 15.9546 22.0513 17.1778 21.9944C17.9146 21.9855 18.6443 21.8496 19.3349 21.5927C20.3481 21.1993 21.1496 20.3983 21.5436 19.3853C21.8012 18.6868 21.937 17.9493 21.9453 17.2049H21.9595C22.0151 15.9701 22.0151 15.6407 22.0151 12.4852C22.0151 9.32965 22.0009 8.99769 21.9453 7.76415C21.9337 7.02848 21.7979 6.30006 21.5436 5.60965C21.1505 4.59514 20.3489 3.79265 19.3349 3.39832C18.6444 3.14094 17.9146 3.00503 17.1778 2.99661C15.9287 2.92557 15.602 2.92557 12.458 2.92557ZM12.502 18.4721C10.0865 18.4736 7.90804 17.0199 6.98248 14.7888C6.05693 12.5578 6.56662 9.98883 8.27385 8.28012C9.98108 6.57142 12.5496 6.0595 14.7814 6.98312C17.0133 7.90674 18.4689 10.084 18.4695 12.4994C18.4659 15.7945 15.7971 18.4657 12.502 18.4721ZM12.502 8.62182C10.3619 8.62182 8.62695 10.3567 8.62695 12.4968C8.62695 14.6369 10.3619 16.3718 12.502 16.3718C14.6421 16.3718 16.377 14.6369 16.377 12.4968C16.372 10.3588 14.64 8.62679 12.502 8.62182ZM18.702 7.70086C17.934 7.69801 17.3133 7.07387 17.3147 6.30587C17.3161 5.53787 17.9391 4.91604 18.7071 4.91604C19.4751 4.91604 20.0981 5.53786 20.0995 6.30586C20.0999 6.67639 19.9527 7.03181 19.6904 7.29357C19.4282 7.55533 19.0725 7.70189 18.702 7.70086Z" fill="#464646"/>
</svg>
